<svg width="26" height="34" viewBox="0 0 26 34" fill="none" xmlns="http://www.w3.org/2000/svg">
<path d="M25.1247 31.0802C25.9235 30.2387 26.1925 28.9683 25.7056 27.8367L25.6973 27.8173L22.7008 21.5927C23.6318 20.5431 24.3851 19.3486 24.9311 18.0562C25.1454 17.5495 24.9084 16.9651 24.4018 16.7508C23.8949 16.5365 23.3106 16.7736 23.0963 17.2802C22.7452 18.1109 22.2924 18.8948 21.7482 19.6139L17.5874 10.9704C17.8475 10.357 17.9812 9.69749 17.9805 9.03123C17.9805 7.40535 17.1972 5.95915 15.9883 5.04959V2.98828C15.9883 1.34054 14.6478 0 13 0C11.3523 0 10.0118 1.34054 10.0118 2.98828V5.04959C8.8029 5.95915 8.01957 7.40535 8.01957 9.03123C8.01889 9.69528 8.15172 10.3527 8.41017 10.9644L4.25036 19.612C3.70686 18.8933 3.25453 18.1101 2.90371 17.2802C2.68941 16.7735 2.10497 16.5365 1.5983 16.7508C1.09162 16.9652 0.854613 17.5495 1.06891 18.0562C1.6147 19.3481 2.36766 20.5422 3.29809 21.5915L0.311677 27.7997L0.294477 27.8374C-0.192612 28.9685 0.0765325 30.2385 0.875531 31.0799L0.151306 32.5678C-0.0894827 33.0624 0.11631 33.6585 0.610903 33.8993C1.1055 34.1401 1.70169 33.9344 1.94248 33.4397L2.65143 31.9832C3.91042 32.1499 5.21836 31.4869 5.77451 30.2222L8.25418 25.0669C9.455 25.5415 10.7099 25.8291 12.0039 25.9263V26.9608C12.0039 27.5109 12.4499 27.9568 13 27.9568C13.5501 27.9568 13.9961 27.5109 13.9961 26.9608V25.9263C15.2893 25.8291 16.5436 25.5419 17.7438 25.0676L20.2255 30.2236C20.7739 31.4691 22.066 32.153 23.3485 31.9834L24.0574 33.4397C24.2983 33.9347 24.8946 34.1401 25.389 33.8994C25.8836 33.6586 26.0894 33.0624 25.8486 32.5678L25.1247 31.0802ZM12.004 2.98828C12.004 2.43903 12.4509 1.99218 13.0001 1.99218C13.5493 1.99218 13.9962 2.43903 13.9962 2.98828V4.15098C13.6684 4.08421 13.3346 4.05064 13.0001 4.05077C12.659 4.05077 12.3259 4.08537 12.004 4.15098V2.98828ZM13.0001 6.04289C14.6478 6.04289 15.9884 7.38343 15.9884 9.03117C15.9884 10.6747 14.6545 12.0124 13.0125 12.0191H12.9871C11.3453 12.012 10.0118 10.6745 10.0118 9.03117C10.0118 7.38343 11.3524 6.04289 13.0001 6.04289ZM3.97125 29.3755L3.95412 29.413C3.7383 29.9138 3.15479 30.1542 2.64559 29.9344C2.14628 29.7191 1.91206 29.1419 2.11759 28.6413L9.74128 12.7927C10.2424 13.2275 10.8304 13.5642 11.4761 13.7722C11.2887 14.1621 4.09736 29.1134 3.97125 29.3755ZM13.9962 23.9279V22.9764C13.9962 22.4263 13.5502 21.9803 13.0001 21.9803C12.45 21.9803 12.004 22.4263 12.004 22.9764V23.9279C11.017 23.8407 10.0467 23.6179 9.12045 23.266L12.9972 15.206L16.8772 23.2669C15.9517 23.6183 14.9823 23.8407 13.9962 23.9279ZM23.3549 29.9346C22.8537 30.151 22.2659 29.9237 22.0457 29.4135L14.5187 13.774C15.1649 13.5666 15.7534 13.2302 16.2551 12.7958L23.8824 28.6402C24.0879 29.1416 23.8542 29.7193 23.3549 29.9346Z" fill="white"/>
</svg>
