<svg width="34" height="34" viewBox="0 0 34 34" fill="none" xmlns="http://www.w3.org/2000/svg">
<path d="M33.7082 11.7111C33.3193 11.3221 32.6886 11.3221 32.2996 11.7111L30.3876 13.6231C29.4553 12.9381 28.3282 12.455 27.0933 12.1989C27.2371 12.069 27.3788 11.9352 27.5176 11.7965C29.6424 9.6717 30.7315 6.92096 30.431 4.43816C30.4043 4.21693 30.3041 4.01108 30.1465 3.8535C29.9889 3.69593 29.7831 3.59575 29.5618 3.56897C27.0792 3.26862 24.3283 4.35754 22.2035 6.48241C22.0657 6.62027 21.9315 6.76163 21.801 6.90635C21.5448 5.67153 21.0618 4.54454 20.3769 3.6124L22.2888 1.70043C22.6778 1.31142 22.6778 0.680764 22.2888 0.291756C21.8999 -0.097252 21.2692 -0.097252 20.8802 0.291756L18.4025 2.76937C16.3133 4.06828 14.8459 6.57173 14.467 9.49865C14.4341 9.75312 14.4106 10.0065 14.395 10.2584C14.1275 9.83998 13.8233 9.45422 13.4835 9.10871C13.3272 8.94985 13.1222 8.84797 12.9012 8.81937C12.6802 8.79077 12.456 8.83709 12.2645 8.95093C10.1146 10.2287 8.60084 12.7706 8.21508 15.7507C8.18259 16.003 8.15858 16.2564 8.1431 16.5104C7.87555 16.092 7.57134 15.7062 7.23154 15.3607C7.07528 15.2019 6.87027 15.1 6.64927 15.0714C6.42828 15.0428 6.20408 15.0891 6.01252 15.2029C3.86262 16.4807 2.34889 19.0226 1.96313 22.0027C1.61968 24.6561 2.23029 27.2007 3.60609 28.9854L0.291756 32.2995C-0.097252 32.6885 -0.097252 33.3192 0.291756 33.7082C0.486193 33.9027 0.741127 33.9999 0.996061 33.9999C1.25099 33.9999 1.50593 33.9027 1.70037 33.7081L5.01417 30.3943C6.47146 31.5178 8.43549 32.1308 10.5521 32.1308C11.0273 32.1308 11.5108 32.0998 11.9973 32.0369C14.9773 31.6511 17.5193 30.1374 18.797 27.9875C18.9108 27.7959 18.9572 27.5717 18.9285 27.3507C18.8999 27.1297 18.7981 26.9247 18.6392 26.7685C18.2938 26.4287 17.9081 26.1246 17.4898 25.857C17.7416 25.8415 17.9949 25.8178 18.2493 25.7849C21.2293 25.3992 23.7713 23.8854 25.049 21.7355C25.1628 21.5439 25.2092 21.3197 25.1806 21.0987C25.152 20.8777 25.0501 20.6727 24.8912 20.5164C24.5458 20.1766 24.1602 19.8726 23.7418 19.605C23.9936 19.5895 24.2469 19.5658 24.5013 19.5328C27.4282 19.154 29.9317 17.6865 31.2306 15.5974L33.7082 13.1197C34.0972 12.7308 34.0972 12.1001 33.7082 11.7111ZM21.9201 10.4632C21.932 10.3706 21.9429 10.2781 21.9525 10.1858C22.3551 9.37228 22.9164 8.58669 23.612 7.89102C25.0349 6.46813 26.8334 5.60552 28.48 5.51979C28.3942 7.16626 27.5316 8.96494 26.1088 10.3878C25.4131 11.0834 24.6276 11.6447 23.814 12.0472C23.7214 12.0569 23.6289 12.0677 23.5365 12.0797C22.8079 12.174 22.1058 12.3361 21.4416 12.5581C21.6636 11.894 21.8258 11.1918 21.9201 10.4632ZM16.4427 9.75431C16.701 7.75881 17.599 5.97753 18.8506 4.9044C19.7879 6.26088 20.2027 8.2121 19.9444 10.2076C19.734 11.8331 19.0991 13.3163 18.1944 14.3905C17.9603 14.5967 17.7388 14.8168 17.5311 15.0495C16.5977 13.6935 16.1849 11.746 16.4427 9.75431ZM15.6681 16.7153C15.7011 16.4608 15.7246 16.2075 15.7401 15.9556C16.0077 16.374 17.6258 17.9922 18.0443 18.2598C17.7925 18.2753 17.5391 18.2988 17.2846 18.3317C16.556 18.426 15.8539 18.5882 15.1897 18.8102C15.4117 18.1461 15.5738 17.4439 15.6681 16.7153ZM10.1907 16.0063C10.4489 14.0108 11.3469 12.2295 12.5986 11.1564C13.5358 12.5129 13.9507 14.4641 13.6924 16.4596C13.482 18.085 12.8471 19.5683 11.9423 20.6425C11.7083 20.8487 11.4868 21.0687 11.2791 21.3015C10.3457 19.9454 9.93281 17.998 10.1907 16.0063ZM9.41611 22.9674C9.44905 22.7129 9.47255 22.4596 9.48809 22.2076C9.75564 22.626 11.3739 24.2443 11.7924 24.5118C11.5404 24.5273 11.287 24.5508 11.0325 24.5838C10.481 24.6548 9.93549 24.7667 9.40057 24.9186C9.36112 24.8554 9.14451 24.6387 9.08122 24.5993C9.23317 24.0644 9.34511 23.5189 9.41611 22.9674ZM5.02712 27.5536C4.09371 26.1974 3.68087 24.25 3.93865 22.2583C4.19697 20.2628 5.09485 18.4816 6.34661 17.4084C7.28387 18.7648 7.69871 20.7161 7.44039 22.7116C7.23001 24.3371 6.59517 25.8203 5.69038 26.8946C5.45628 27.1007 5.23479 27.3208 5.02712 27.5536ZM11.7415 30.0612C9.74688 30.3195 7.79639 29.905 6.44004 28.9685L7.06015 28.3484C8.13779 27.423 9.63976 26.7728 11.2883 26.5594C13.2839 26.3013 15.235 26.7159 16.5915 27.6532C15.5184 28.905 13.737 29.8029 11.7415 30.0612ZM17.9935 23.8092C15.9978 24.0674 14.0468 23.6527 12.6904 22.7154C13.7635 21.4637 15.5448 20.5658 17.5403 20.3075C19.5357 20.0491 21.487 20.464 22.8435 21.4013C21.7703 22.653 19.989 23.5509 17.9935 23.8092ZM24.2455 17.5572C22.25 17.8154 20.2988 17.4007 18.9423 16.4634C20.0154 15.2116 21.7967 14.3138 23.7922 14.0554C25.7878 13.7972 27.739 14.212 29.0954 15.1492C28.0223 16.401 26.241 17.2989 24.2455 17.5572Z" fill="white"/>
</svg>
