<svg width="34" height="34" viewBox="0 0 34 34" fill="none" xmlns="http://www.w3.org/2000/svg">
<path d="M32.9364 16.7735C31.7996 15.8366 30.0028 15.7563 28.8235 17.0219L25.8958 20.1647C25.5173 18.9482 24.3812 18.0624 23.0419 18.0624H17.8174C17.4209 18.0624 17.2882 17.911 16.5996 17.3805C13.974 15.0916 10.0304 15.0989 7.4128 17.4024L5.49246 19.093C4.62925 18.6361 3.62127 18.6248 2.75334 19.0584L0.550774 20.1594C0.0587036 20.4058 -0.140449 21.004 0.105188 21.4961L6.08142 33.4485C6.32779 33.9405 6.92604 34.1397 7.41811 33.8941L9.62067 32.7924C10.7063 32.25 11.3106 31.1423 11.2714 30.0149H23.0418C25.2245 30.0149 27.3102 28.9724 28.6196 27.226L33.4013 20.8501C34.3289 19.6143 34.1822 17.8021 32.9364 16.7735ZM8.7295 31.0108L7.41804 31.6669L2.33232 21.4961L3.64444 20.8401C4.13651 20.5944 4.7341 20.7929 4.98047 21.2856L9.17509 29.6749C9.42079 30.1669 9.22157 30.7645 8.7295 31.0108ZM31.8076 19.6548L27.026 26.0307C26.0904 27.2784 24.601 28.0228 23.0419 28.0228H10.5762L6.8437 20.5572L8.72884 18.8978C10.6047 17.2477 13.4335 17.2477 15.3093 18.8978C16.4142 19.8706 17.1015 20.0545 17.8173 20.0545H23.0418C23.591 20.0545 24.0379 20.5014 24.0379 21.0506C24.0379 21.5997 23.591 22.0466 23.0418 22.0466H17.9548C17.4049 22.0466 16.9588 22.4928 16.9588 23.0426C16.9588 23.5924 17.405 24.0386 17.9548 24.0386H23.7092C24.5359 24.0386 25.3328 23.692 25.8958 23.0871L30.2811 18.3798C30.6821 17.9495 31.297 17.9854 31.6742 18.3154C32.0686 18.6607 32.1111 19.251 31.8076 19.6548ZM20.9435 6.79792C21.6255 6.08279 22.0458 5.11598 22.0458 4.05149C22.0458 1.85889 20.2742 0.000976562 18.0617 0.000976562C15.8658 0.000976562 14.0112 1.85557 14.0112 4.05149C14.0112 5.08338 14.4156 6.05749 15.15 6.80589C13.3286 7.82715 12.0191 9.78733 12.0191 12.0862V13.0822C12.0191 13.632 12.4654 14.0782 13.0152 14.0782H23.0419C23.5917 14.0782 24.0379 13.632 24.0379 13.0822V12.0862C24.0379 9.83249 22.7983 7.84176 20.9435 6.79792ZM18.0617 1.9931C19.1414 1.9931 20.0538 2.936 20.0538 4.05156C20.0538 5.14985 19.16 6.04361 18.0617 6.04361C16.9461 6.04361 16.0032 5.13126 16.0032 4.05156C16.0032 2.95526 16.9654 1.9931 18.0617 1.9931ZM14.0112 12.0862C14.0112 9.89026 15.8658 8.03567 18.0617 8.03567C20.2583 8.03567 22.0458 9.85241 22.0458 12.0862H14.0112Z" fill="white"/>
</svg>
