<svg width="34" height="30" viewBox="0 0 34 30" fill="none" xmlns="http://www.w3.org/2000/svg">
<path d="M33.0039 13.9453C33.0039 13.9453 30.0322 13.949 29.8828 13.9541V10.957C29.8828 10.4069 29.4369 9.96094 28.8867 9.96094H19.9219V0.996094C19.9219 0.445918 19.476 0 18.9258 0H10.957C10.4069 0 9.96094 0.445918 9.96094 0.996094V9.96094H0.996094C0.445918 9.96094 0 10.4069 0 10.957V18.9258C0 19.476 0.445918 19.9219 0.996094 19.9219H9.96094V28.8867C9.96094 29.4369 10.4069 29.8828 10.957 29.8828H21.4625C25.3534 29.8828 28.8815 28.3148 31.1419 25.5809C33.0117 23.3192 34 20.5642 34 17.6132V14.9414C34 14.3912 33.5541 13.9453 33.0039 13.9453ZM10.957 17.9297H1.99219V11.9531H10.957C11.5072 11.9531 11.9531 11.5072 11.9531 10.957V1.99219H17.9297V10.957C17.9297 11.5072 18.3756 11.9531 18.9258 11.9531H27.8906V14.1826C26.2279 14.5101 24.6496 15.174 23.2528 16.1337C21.2993 14.7177 18.9268 13.9453 16.4895 13.9453H14.8135C14.2633 13.9453 13.8174 14.3912 13.8174 14.9414V16.6174C13.8174 20.0057 15.283 23.1804 17.8503 25.3812C17.7787 26.2168 17.7911 27.0575 17.8875 27.8906H11.9531V18.9258C11.9531 18.3756 11.5072 17.9297 10.957 17.9297ZM20.5914 18.5964C20.5239 18.6802 20.4574 18.7648 20.3919 18.8503L19.7628 18.2215C19.374 17.8324 18.7434 17.8324 18.3544 18.2215C17.9653 18.6107 17.9652 19.2412 18.3544 19.63L19.286 20.5621C18.8647 21.3463 18.5288 22.1734 18.284 23.0292C16.6978 21.2832 15.8097 19.015 15.8097 16.6174V15.9375H16.4895C18.3271 15.9375 20.1196 16.4677 21.6448 17.4472C21.2704 17.8083 20.9186 18.1921 20.5914 18.5963V18.5964ZM32.0078 17.6131C32.0078 20.0951 31.1775 22.4112 29.6066 24.3114C27.7261 26.5858 24.7581 27.8903 21.4635 27.8906L25.7394 23.6143C26.1285 23.2255 26.1285 22.5949 25.7394 22.2059C25.3506 21.8167 24.7197 21.8167 24.3309 22.2059L19.8005 26.736C19.7341 24.254 20.5462 21.8209 22.1408 19.8486C24.1501 17.3631 27.1358 15.9375 30.3321 15.9375H32.0078V17.6131Z" fill="white"/>
</svg>
