<svg width="32" height="32" viewBox="0 0 32 32" fill="none" xmlns="http://www.w3.org/2000/svg">
<path d="M16.0004 7.4999V7.54698M7.5471 16.0003H7.50002M22.0109 9.98976L21.9776 10.023M10.0234 21.9773L9.99007 22.0106M10.0234 10.0225L9.99007 9.98923M16 29.5999C8.48895 29.5999 2.40002 23.511 2.40002 15.9999C2.40002 8.48883 8.48895 2.3999 16 2.3999C23.5111 2.3999 29.6 8.48883 29.6 15.9999C29.6 18.2865 27.4872 19.8079 25.2007 19.8079H24.313C23.8546 19.8079 23.4026 19.9146 22.9927 20.1196C21.5343 20.8488 20.9431 22.6222 21.6723 24.0805C21.8773 24.4905 21.984 24.9425 21.984 25.4008V25.6688C21.984 27.228 21.1091 28.7045 19.6054 29.1168C18.4572 29.4317 17.2482 29.5999 16 29.5999Z" stroke="white" stroke-width="2.83333" stroke-linecap="round" stroke-linejoin="round"/>
</svg>
