<svg width="34" height="30" viewBox="0 0 34 30" fill="none" xmlns="http://www.w3.org/2000/svg">
<path d="M29.0195 15.807H25.6914C25.2384 15.807 24.7999 15.8689 24.3825 15.9827C23.5592 14.3642 21.8783 13.2522 19.9415 13.2522H14.0585C12.1217 13.2522 10.4408 14.3642 9.61749 15.9827C9.19096 15.8661 8.75078 15.807 8.30862 15.807H4.98047C2.23424 15.807 0 18.0412 0 20.7874V26.1078C0 27.7555 1.34054 29.0961 2.98828 29.0961H31.0117C32.6595 29.0961 34 27.7555 34 26.1078V20.7874C34 18.0412 31.7658 15.807 29.0195 15.807ZM9.07807 18.2328V27.1039H2.98828C2.43904 27.1039 1.99219 26.6571 1.99219 26.1079V20.7875C1.99219 19.1398 3.33273 17.7992 4.98047 17.7992H8.30862C8.57902 17.7992 8.84086 17.836 9.09015 17.9036C9.08251 18.0132 9.07848 18.123 9.07807 18.2328ZM22.9297 27.1039H11.0703V18.2327C11.0703 16.585 12.4108 15.2445 14.0585 15.2445H19.9415C21.5892 15.2445 22.9297 16.585 22.9297 18.2327V27.1039ZM32.0078 26.1079C32.0078 26.6571 31.561 27.1039 31.0117 27.1039H24.9219V18.2327C24.9215 18.1229 24.9175 18.0131 24.9098 17.9036C25.1646 17.8343 25.4274 17.7992 25.6914 17.7992H29.0195C30.6673 17.7992 32.0078 19.1397 32.0078 20.7874V26.1079Z" fill="white"/>
<path d="M6.64458 6.40059C4.20422 6.40059 2.21887 8.38593 2.21887 10.8263C2.21881 13.2667 4.20422 15.252 6.64458 15.252C9.08488 15.252 11.0703 13.2667 11.0703 10.8263C11.0703 8.38593 9.08495 6.40059 6.64458 6.40059ZM6.64452 13.2598C5.30265 13.2598 4.21099 12.1682 4.21099 10.8263C4.21099 9.48442 5.30265 8.39277 6.64452 8.39277C7.98639 8.39277 9.07804 9.48442 9.07804 10.8263C9.07804 12.1682 7.98639 13.2598 6.64452 13.2598ZM17 0.903809C13.7397 0.903809 11.0873 3.55621 11.0873 6.81649C11.0873 10.0768 13.7397 12.7292 17 12.7292C20.2603 12.7292 22.9127 10.0768 22.9127 6.81649C22.9127 3.55627 20.2603 0.903809 17 0.903809ZM17 10.737C14.8382 10.737 13.0795 8.97828 13.0795 6.81649C13.0795 4.65477 14.8382 2.896 17 2.896C19.1618 2.896 20.9205 4.6547 20.9205 6.81649C20.9205 8.97828 19.1618 10.737 17 10.737ZM27.3554 6.40059C24.9151 6.40059 22.9297 8.38593 22.9297 10.8263C22.9297 13.2667 24.9151 15.252 27.3554 15.252C29.7957 15.252 31.7811 13.2667 31.7811 10.8263C31.7811 8.38593 29.7957 6.40059 27.3554 6.40059ZM27.3554 13.2598C26.0136 13.2598 24.9218 12.1682 24.9218 10.8263C24.9219 9.48442 26.0136 8.39277 27.3554 8.39277C28.6972 8.39277 29.7889 9.48442 29.7889 10.8263C29.7889 12.1682 28.6972 13.2598 27.3554 13.2598Z" fill="white"/>
</svg>
