<svg width="34" height="34" viewBox="0 0 34 34" fill="none" xmlns="http://www.w3.org/2000/svg">
<g filter="url(#filter0_d_119_1464)">
<path d="M4.74454 22.0582C4.51603 22.0582 4.29687 21.9674 4.13529 21.8058C3.97371 21.6442 3.88293 21.4251 3.88293 21.1966V15.0505C3.88293 14.822 3.97371 14.6028 4.13529 14.4412C4.29687 14.2797 4.51603 14.1889 4.74454 14.1889C4.97305 14.1889 5.1922 14.2797 5.35378 14.4412C5.51536 14.6028 5.60614 14.822 5.60614 15.0505V21.1966C5.60614 21.4251 5.51536 21.6442 5.35378 21.8058C5.1922 21.9674 4.97305 22.0582 4.74454 22.0582ZM8.62692 8.33457C7.80271 8.33457 6.99701 8.09017 6.3117 7.63226C5.62639 7.17435 5.09226 6.52351 4.77685 5.76204C4.46144 5.00057 4.37891 4.16267 4.53971 3.35429C4.7005 2.54592 5.0974 1.80338 5.6802 1.22057C6.26301 0.637766 7.00555 0.240871 7.81392 0.0800751C8.6223 -0.0807205 9.4602 0.00180561 10.2217 0.317218C10.9831 0.63263 11.634 1.16676 12.0919 1.85207C12.5498 2.53737 12.7942 3.34308 12.7942 4.16729C12.793 5.27215 12.3535 6.33141 11.5723 7.11266C10.791 7.89392 9.73178 8.33336 8.62692 8.33457ZM8.62692 1.72321C8.14353 1.72321 7.67099 1.86655 7.26906 2.13511C6.86714 2.40367 6.55387 2.78538 6.36888 3.23198C6.1839 3.67858 6.1355 4.17 6.2298 4.6441C6.32411 5.11821 6.55688 5.5537 6.89869 5.89551C7.24051 6.23732 7.676 6.4701 8.1501 6.56441C8.62421 6.65871 9.11563 6.61031 9.56223 6.42532C10.0088 6.24034 10.3905 5.92707 10.6591 5.52515C10.9277 5.12322 11.071 4.65068 11.071 4.16729C11.0702 3.51931 10.8125 2.89809 10.3543 2.4399C9.89612 1.98171 9.2749 1.72397 8.62692 1.72321ZM22.2132 14.7805C22.0469 14.7806 21.884 14.7326 21.7444 14.6421C21.6047 14.5517 21.4942 14.4228 21.4263 14.2709C21.3583 14.1191 21.3358 13.9508 21.3613 13.7864C21.3869 13.622 21.4596 13.4685 21.5705 13.3445L26.2519 8.09677C26.4042 7.92623 26.6181 7.82318 26.8464 7.81031C27.0747 7.79744 27.2988 7.87579 27.4693 8.02813C27.6399 8.18047 27.7429 8.39432 27.7558 8.62264C27.7686 8.85095 27.6903 9.07503 27.538 9.24558L22.8566 14.4904C22.7759 14.5815 22.6769 14.6544 22.566 14.7044C22.4551 14.7544 22.3349 14.7803 22.2132 14.7805Z" fill="white"/>
<path d="M31.4152 22.5608H15.9563C15.7278 22.5608 15.5086 22.47 15.347 22.3084C15.1855 22.1468 15.0947 21.9277 15.0947 21.6992C15.0947 21.4707 15.1855 21.2515 15.347 21.0899C15.5086 20.9284 15.7278 20.8376 15.9563 20.8376H31.4152C31.6437 20.8376 31.8628 20.7468 32.0244 20.5852C32.186 20.4236 32.2768 20.2045 32.2768 19.976V2.60434C32.2768 2.37583 32.186 2.15668 32.0244 1.99509C31.8628 1.83351 31.6437 1.74274 31.4152 1.74274H14.5128C14.2843 1.74274 14.0652 1.65196 13.9036 1.49038C13.742 1.3288 13.6512 1.10965 13.6512 0.881134C13.6512 0.652623 13.742 0.433471 13.9036 0.271889C14.0652 0.110307 14.2843 0.0195313 14.5128 0.0195313H31.4152C31.7546 0.0195312 32.0907 0.0863893 32.4043 0.216288C32.7179 0.346187 33.0029 0.536583 33.2429 0.776604C33.4829 1.01663 33.6733 1.30157 33.8032 1.61518C33.9331 1.92878 34 2.2649 34 2.60434V19.976C34 20.6615 33.7276 21.319 33.2429 21.8037C32.7582 22.2885 32.1007 22.5608 31.4152 22.5608ZM8.62692 34.0006H4.74454C4.51603 34.0006 4.29687 33.9098 4.13529 33.7482C3.97371 33.5866 3.88293 33.3675 3.88293 33.139V21.1966C3.88293 20.9681 3.97371 20.7489 4.13529 20.5873C4.29687 20.4258 4.51603 20.335 4.74454 20.335C4.97305 20.335 5.1922 20.4258 5.35378 20.5873C5.51536 20.7489 5.60614 20.9681 5.60614 21.1966V32.2774H8.62692C8.85543 32.2774 9.07458 32.3681 9.23617 32.5297C9.39775 32.6913 9.48852 32.9105 9.48852 33.139C9.48852 33.3675 9.39775 33.5866 9.23617 33.7482C9.07458 33.9098 8.85543 34.0006 8.62692 34.0006Z" fill="white"/>
<path d="M12.5099 34.0007H8.62694C8.39843 34.0007 8.17928 33.9099 8.0177 33.7483C7.85612 33.5867 7.76534 33.3676 7.76534 33.1391V21.6993C7.76534 21.4708 7.85612 21.2516 8.0177 21.09C8.17928 20.9284 8.39843 20.8377 8.62694 20.8377C8.85545 20.8377 9.07461 20.9284 9.23619 21.09C9.39777 21.2516 9.48855 21.4708 9.48855 21.6993V32.2775H11.6483V15.9874C11.6482 15.6298 11.7543 15.2803 11.9529 14.9829C12.1516 14.6856 12.434 14.4539 12.7643 14.317C13.0947 14.1802 13.4583 14.1445 13.809 14.2143C14.1597 14.2841 14.4818 14.4564 14.7346 14.7094L16.085 16.0581C16.185 16.1586 16.304 16.2383 16.435 16.2925C16.5661 16.3467 16.7065 16.3744 16.8484 16.374H20.8583C21.002 16.374 21.1442 16.3454 21.2767 16.2897C21.4092 16.234 21.5293 16.1525 21.6299 16.0498C21.7304 15.9472 21.8095 15.8255 21.8625 15.6918C21.9154 15.5582 21.9411 15.4154 21.9381 15.2717C21.9261 14.6887 21.4246 14.2148 20.8203 14.2148H17.6502C17.4218 14.2146 17.2028 14.1237 17.0414 13.9621L15.1866 12.1079C14.8501 11.7695 14.4498 11.5011 14.0089 11.3185C13.5679 11.1359 13.0951 11.0427 12.6179 11.0441H11.9493L10.6471 12.1269C10.0798 12.5983 9.36544 12.8565 8.6278 12.8565C7.89017 12.8565 7.17578 12.5983 6.60849 12.1269L5.30518 11.0441H4.74456C3.94353 11.045 3.17556 11.3636 2.60915 11.9301C2.04273 12.4965 1.72412 13.2644 1.72321 14.0655C1.72321 14.294 1.63243 14.5131 1.47085 14.6747C1.30927 14.8363 1.09011 14.9271 0.861603 14.9271C0.633092 14.9271 0.41394 14.8363 0.252358 14.6747C0.0907758 14.5131 0 14.294 0 14.0655C0.00136837 12.8076 0.50168 11.6015 1.39116 10.7121C2.28064 9.82259 3.48664 9.32228 4.74456 9.32091H5.6165C5.81776 9.32097 6.01265 9.39149 6.16735 9.52023L7.70905 10.8017C7.96708 11.0166 8.29228 11.1343 8.62809 11.1343C8.96391 11.1343 9.2891 11.0166 9.54713 10.8017L11.0877 9.51965C11.2424 9.39091 11.4373 9.3204 11.6385 9.32033H12.619C13.3226 9.31839 14.0196 9.45604 14.6697 9.72531C15.3197 9.99457 15.9099 10.3901 16.4061 10.889L18.0086 12.4916H20.8232C22.3592 12.4916 23.6332 13.7231 23.6636 15.2372C23.6712 15.6101 23.6043 15.9806 23.4669 16.3273C23.3294 16.6739 23.1242 16.9896 22.8632 17.256C22.6022 17.5223 22.2907 17.7339 21.9469 17.8783C21.6032 18.0228 21.234 18.0972 20.8611 18.0972H16.8461C16.4779 18.0982 16.1131 18.0262 15.773 17.8853C15.4328 17.7444 15.124 17.5375 14.8644 17.2764L13.5163 15.9265C13.5052 15.9156 13.4914 15.9079 13.4764 15.9041C13.4613 15.9004 13.4455 15.9008 13.4307 15.9053C13.4139 15.9109 13.3993 15.9218 13.389 15.9362C13.3786 15.9506 13.3731 15.968 13.3732 15.9857V33.1373C13.3735 33.2508 13.3513 33.3631 13.308 33.468C13.2647 33.5728 13.2011 33.6681 13.1209 33.7483C13.0407 33.8285 12.9454 33.8921 12.8405 33.9354C12.7357 33.9787 12.6233 34.0009 12.5099 34.0007Z" fill="white"/>
<path d="M2.80308 23.9998C2.05989 23.999 1.34736 23.7034 0.821843 23.1779C0.296328 22.6524 0.000760297 21.9399 0 21.1967L0 14.0649C0 13.8364 0.0907758 13.6172 0.252358 13.4556C0.41394 13.2941 0.633092 13.2033 0.861603 13.2033C1.09011 13.2033 1.30927 13.2941 1.47085 13.4556C1.63243 13.6172 1.72321 13.8364 1.72321 14.0649V21.1967C1.72321 21.3385 1.75114 21.4789 1.80541 21.6099C1.85968 21.7409 1.93922 21.86 2.03949 21.9603C2.13977 22.0605 2.25881 22.1401 2.38983 22.1943C2.52085 22.2486 2.66127 22.2765 2.80308 22.2765C2.94489 22.2765 3.08532 22.2486 3.21633 22.1943C3.34735 22.1401 3.46639 22.0605 3.56667 21.9603C3.66694 21.86 3.74649 21.7409 3.80076 21.6099C3.85503 21.4789 3.88296 21.3385 3.88296 21.1967C3.88296 20.9682 3.97373 20.749 4.13531 20.5874C4.2969 20.4258 4.51605 20.3351 4.74456 20.3351C4.97307 20.3351 5.19222 20.4258 5.35381 20.5874C5.51539 20.749 5.60616 20.9682 5.60616 21.1967C5.6054 21.9399 5.30983 22.6524 4.78432 23.1779C4.2588 23.7034 3.54627 23.999 2.80308 23.9998ZM27.1135 34.0007H0.863326C0.634815 34.0007 0.415663 33.9099 0.254081 33.7483C0.092499 33.5867 0.00172321 33.3676 0.00172321 33.1391C0.00172321 32.9105 0.092499 32.6914 0.254081 32.5298C0.415663 32.3682 0.634815 32.2775 0.863326 32.2775H27.1135C27.342 32.2775 27.5612 32.3682 27.7227 32.5298C27.8843 32.6914 27.9751 32.9105 27.9751 33.1391C27.9751 33.3676 27.8843 33.5867 27.7227 33.7483C27.5612 33.9099 27.342 34.0007 27.1135 34.0007ZM22.4264 9.53229H17.9593C17.7307 9.53229 17.5116 9.44151 17.35 9.27993C17.1884 9.11835 17.0976 8.8992 17.0976 8.67068C17.0976 8.44217 17.1884 8.22302 17.35 8.06144C17.5116 7.89986 17.7307 7.80908 17.9593 7.80908H22.4264C22.6549 7.80908 22.874 7.89986 23.0356 8.06144C23.1972 8.22302 23.288 8.44217 23.288 8.67068C23.288 8.8992 23.1972 9.11835 23.0356 9.27993C22.874 9.44151 22.6549 9.53229 22.4264 9.53229ZM26.8935 5.63727H17.9593C17.7307 5.63727 17.5116 5.54649 17.35 5.38491C17.1884 5.22333 17.0976 5.00418 17.0976 4.77567C17.0976 4.54715 17.1884 4.328 17.35 4.16642C17.5116 4.00484 17.7307 3.91406 17.9593 3.91406H26.8935C27.122 3.91406 27.3412 4.00484 27.5027 4.16642C27.6643 4.328 27.7551 4.54715 27.7551 4.77567C27.7551 5.00418 27.6643 5.22333 27.5027 5.38491C27.3412 5.54649 27.122 5.63727 26.8935 5.63727Z" fill="white"/>
</g>
<defs>
<filter id="filter0_d_119_1464" x="-4" y="0" width="42" height="42.0007" filterUnits="userSpaceOnUse" color-interpolation-filters="sRGB">
<feFlood flood-opacity="0" result="BackgroundImageFix"/>
<feColorMatrix in="SourceAlpha" type="matrix" values="0 0 0 0 0 0 0 0 0 0 0 0 0 0 0 0 0 0 127 0" result="hardAlpha"/>
<feOffset dy="4"/>
<feGaussianBlur stdDeviation="2"/>
<feComposite in2="hardAlpha" operator="out"/>
<feColorMatrix type="matrix" values="0 0 0 0 0 0 0 0 0 0 0 0 0 0 0 0 0 0 0.25 0"/>
<feBlend mode="normal" in2="BackgroundImageFix" result="effect1_dropShadow_119_1464"/>
<feBlend mode="normal" in="SourceGraphic" in2="effect1_dropShadow_119_1464" result="shape"/>
</filter>
</defs>
</svg>
